<svg width="4474" height="975" viewBox="0 0 4474 975" fill="none" xmlns="http://www.w3.org/2000/svg">
<path d="M852.8 799V203H972.8L1196 499H1140L1356.8 203H1476.8V799H1352.8V339.8L1402.4 351L1172.8 647H1156.8L935.2 351L976.8 339.8V799H852.8ZM1708.89 808.6C1677.42 808.6 1650.22 803.533 1627.29 793.4C1604.35 783.267 1586.75 768.867 1574.49 750.2C1562.22 731 1556.09 708.333 1556.09 682.2C1556.09 657.667 1561.69 636.067 1572.89 617.4C1584.09 598.2 1601.15 582.2 1624.09 569.4C1647.55 556.6 1676.62 547.533 1711.29 542.2L1844.89 520.6V608.6L1732.89 628.6C1715.82 631.8 1702.75 637.4 1693.69 645.4C1684.62 652.867 1680.09 663.8 1680.09 678.2C1680.09 691.533 1685.15 701.933 1695.29 709.4C1705.42 716.867 1717.95 720.6 1732.89 720.6C1752.62 720.6 1769.95 716.333 1784.89 707.8C1799.82 699.267 1811.29 687.8 1819.29 673.4C1827.82 658.467 1832.09 642.2 1832.09 624.6V511C1832.09 494.467 1825.42 480.6 1812.09 469.4C1799.29 458.2 1781.69 452.6 1759.29 452.6C1737.95 452.6 1719.02 458.467 1702.49 470.2C1686.49 481.933 1674.75 497.4 1667.29 516.6L1571.29 471C1579.82 446.467 1593.42 425.4 1612.09 407.8C1630.75 390.2 1653.15 376.6 1679.29 367C1705.42 357.4 1733.95 352.6 1764.89 352.6C1801.69 352.6 1834.22 359.267 1862.49 372.6C1890.75 385.933 1912.62 404.6 1928.09 428.6C1944.09 452.067 1952.09 479.533 1952.09 511V799H1840.09V728.6L1867.29 723.8C1854.49 743 1840.35 759 1824.89 771.8C1809.42 784.067 1792.09 793.133 1772.89 799C1753.69 805.4 1732.35 808.6 1708.89 808.6ZM2040.09 799V362.2H2152.09V448.6L2145.69 429.4C2155.83 403.267 2172.09 384.067 2194.49 371.8C2217.43 359 2244.09 352.6 2274.49 352.6C2307.56 352.6 2336.36 359.533 2360.89 373.4C2385.96 387.267 2405.43 406.733 2419.29 431.8C2433.16 456.333 2440.09 485.133 2440.09 518.2V799H2320.09V543.8C2320.09 526.733 2316.63 512.067 2309.69 499.8C2303.29 487.533 2293.96 477.933 2281.69 471C2269.96 464.067 2256.09 460.6 2240.09 460.6C2224.63 460.6 2210.76 464.067 2198.49 471C2186.23 477.933 2176.63 487.533 2169.69 499.8C2163.29 512.067 2160.09 526.733 2160.09 543.8V799H2040.09ZM2733.4 975C2699.8 975 2668.6 969.4 2639.8 958.2C2611 947 2586.2 931.267 2565.4 911C2545.13 891.267 2530.47 867.8 2521.4 840.6L2632.6 801.4C2638.47 821.667 2650.47 837.667 2668.6 849.4C2686.73 861.133 2708.33 867 2733.4 867C2753.13 867 2770.2 863.267 2784.6 855.8C2799 848.867 2809.93 838.467 2817.4 824.6C2825.4 810.733 2829.4 794.467 2829.4 775.8V675.8L2852.6 704.6C2837.67 729.133 2818.47 747.533 2795 759.8C2771.53 771.533 2744.07 777.4 2712.6 777.4C2672.07 777.4 2635.8 768.333 2603.8 750.2C2571.8 731.533 2546.73 706.2 2528.6 674.2C2510.47 641.667 2501.4 604.867 2501.4 563.8C2501.4 522.733 2510.47 486.467 2528.6 455C2546.73 423 2571.53 397.933 2603 379.8C2634.47 361.667 2670.2 352.6 2710.2 352.6C2741.67 352.6 2769.13 359 2792.6 371.8C2816.07 384.067 2836.07 403 2852.6 428.6L2837.4 457.4V362.2H2949.4V775.8C2949.4 814.2 2940.07 848.333 2921.4 878.2C2902.73 908.6 2877.13 932.333 2844.6 949.4C2812.6 966.467 2775.53 975 2733.4 975ZM2729.4 668.6C2749.67 668.6 2767.27 664.333 2782.2 655.8C2797.13 647.267 2808.6 635.267 2816.6 619.8C2825.13 604.333 2829.4 586.2 2829.4 565.4C2829.4 544.6 2825.13 526.467 2816.6 511C2808.07 495 2796.33 482.733 2781.4 474.2C2766.47 465.133 2749.13 460.6 2729.4 460.6C2709.13 460.6 2691 465.133 2675 474.2C2659.53 482.733 2647.27 495 2638.2 511C2629.67 526.467 2625.4 544.6 2625.4 565.4C2625.4 585.667 2629.67 603.533 2638.2 619C2647.27 634.467 2659.53 646.733 2675 655.8C2691 664.333 2709.13 668.6 2729.4 668.6ZM3254.55 808.6C3211.35 808.6 3171.88 798.733 3136.15 779C3100.95 759.267 3072.68 732.333 3051.35 698.2C3030.55 663.533 3020.15 624.333 3020.15 580.6C3020.15 536.333 3030.55 497.133 3051.35 463C3072.68 428.867 3100.95 401.933 3136.15 382.2C3171.88 362.467 3211.35 352.6 3254.55 352.6C3297.75 352.6 3336.95 362.467 3372.15 382.2C3407.35 401.933 3435.35 428.867 3456.15 463C3477.48 497.133 3488.15 536.333 3488.15 580.6C3488.15 624.333 3477.48 663.533 3456.15 698.2C3435.35 732.333 3407.35 759.267 3372.15 779C3336.95 798.733 3297.75 808.6 3254.55 808.6ZM3254.55 700.6C3276.42 700.6 3295.35 695.533 3311.35 685.4C3327.88 675.267 3340.68 661.133 3349.75 643C3359.35 624.867 3364.15 604.067 3364.15 580.6C3364.15 557.133 3359.35 536.6 3349.75 519C3340.68 500.867 3327.88 486.733 3311.35 476.6C3295.35 465.933 3276.42 460.6 3254.55 460.6C3232.68 460.6 3213.48 465.933 3196.95 476.6C3180.42 486.733 3167.35 500.867 3157.75 519C3148.68 536.6 3144.15 557.133 3144.15 580.6C3144.15 604.067 3148.68 624.867 3157.75 643C3167.35 661.133 3180.42 675.267 3196.95 685.4C3213.48 695.533 3232.68 700.6 3254.55 700.6ZM3769.24 808.6C3722.84 808.6 3682.58 798.467 3648.44 778.2C3614.31 757.4 3587.91 729.667 3569.24 695C3550.58 660.333 3541.24 621.933 3541.24 579.8C3541.24 536.067 3550.84 497.133 3570.04 463C3589.78 428.867 3616.18 401.933 3649.24 382.2C3682.31 362.467 3719.64 352.6 3761.24 352.6C3795.91 352.6 3826.58 358.2 3853.24 369.4C3879.91 380.067 3902.31 395.267 3920.44 415C3939.11 434.733 3953.24 457.667 3962.84 483.8C3972.44 509.4 3977.24 537.4 3977.24 567.8C3977.24 576.333 3976.71 584.867 3975.64 593.4C3975.11 601.4 3973.78 608.333 3971.64 614.2H3644.44V526.2H3903.64L3846.84 567.8C3852.18 544.867 3851.91 524.6 3846.04 507C3840.18 488.867 3829.78 474.733 3814.84 464.6C3800.44 453.933 3782.58 448.6 3761.24 448.6C3740.44 448.6 3722.58 453.667 3707.64 463.8C3692.71 473.933 3681.51 488.867 3674.04 508.6C3666.58 528.333 3663.64 552.333 3665.24 580.6C3663.11 605.133 3666.04 626.733 3674.04 645.4C3682.04 664.067 3694.31 678.733 3710.84 689.4C3727.38 699.533 3747.38 704.6 3770.84 704.6C3792.18 704.6 3810.31 700.333 3825.24 691.8C3840.71 683.267 3852.71 671.533 3861.24 656.6L3957.24 702.2C3948.71 723.533 3935.11 742.2 3916.44 758.2C3898.31 774.2 3876.71 786.733 3851.64 795.8C3826.58 804.333 3799.11 808.6 3769.24 808.6ZM4219.11 808.6C4171.11 808.6 4129.24 797.4 4093.51 775C4058.31 752.067 4034.31 721.4 4021.51 683L4109.51 641.4C4120.71 664.867 4135.91 683.267 4155.11 696.6C4174.31 709.933 4195.64 716.6 4219.11 716.6C4236.17 716.6 4249.24 713.133 4258.31 706.2C4267.37 699.267 4271.91 689.667 4271.91 677.4C4271.91 671 4270.31 665.667 4267.11 661.4C4263.91 656.6 4259.11 652.333 4252.71 648.6C4246.31 644.867 4238.31 641.667 4228.71 639L4154.31 618.2C4118.57 608.067 4091.11 591.8 4071.91 569.4C4052.71 546.467 4043.11 519.533 4043.11 488.6C4043.11 461.4 4050.04 437.667 4063.91 417.4C4077.77 397.133 4097.24 381.4 4122.31 370.2C4147.37 358.467 4176.17 352.6 4208.71 352.6C4251.37 352.6 4288.71 362.733 4320.71 383C4353.24 402.733 4376.17 430.733 4389.51 467L4300.71 508.6C4294.31 490.467 4282.57 476.067 4265.51 465.4C4248.97 454.2 4230.04 448.6 4208.71 448.6C4193.24 448.6 4180.97 451.8 4171.91 458.2C4163.37 464.6 4159.11 473.4 4159.11 484.6C4159.11 490.467 4160.71 495.8 4163.91 500.6C4167.11 505.4 4172.17 509.667 4179.11 513.4C4186.57 517.133 4195.64 520.6 4206.31 523.8L4275.91 544.6C4312.17 555.267 4339.91 571.533 4359.11 593.4C4378.31 614.733 4387.91 641.133 4387.91 672.6C4387.91 699.8 4380.71 723.533 4366.31 743.8C4352.44 764.067 4332.97 780.067 4307.91 791.8C4282.84 803 4253.24 808.6 4219.11 808.6Z" fill="black"/>
<path d="M25.1875 631.937C17.6875 669.5 60.5625 813.937 284.25 842.812C399.188 857.625 512.063 816.812 601.438 748.375C690.813 679.937 745.625 591.75 764.438 511.187C793.375 387.125 760.125 199.812 514.063 188.75C262.438 177.437 177.875 440.5 125.125 517.812C61.6251 611 32.0001 598 25.1875 631.937Z" fill="url(#paint0_radial_13_11)"/>
<path d="M261.812 300.063C261.812 300.063 346.625 343.188 478.125 334.063C584.563 326.688 626.438 274.438 626.438 274.438C626.438 274.438 673.25 287.313 704.313 279.063C716.75 275.75 719.438 269 704.25 253.25C681.313 229.375 602.563 185.188 486.438 192.625C341.125 202.063 261.812 300.063 261.812 300.063Z" fill="#DC0D27"/>
<path d="M162.75 551.875C177.5 576.438 221.187 544.75 251.937 513.938C296.312 469.438 316.5 428.688 328.312 408C340.125 387.313 356.125 342.75 323.875 335.563C290.312 328.125 280.375 369.625 263.125 400.188C245.875 430.75 221.875 467.125 202.625 490.813C182.187 516 154 537.313 162.75 551.875Z" fill="#FFEBC9"/>
<path d="M639.75 229.125C635.5 247.687 652.562 260.687 664.375 270C676.187 279.312 702.812 282.812 711.687 276.375C720.562 270 710.687 251.25 717.125 239.937C723.5 228.625 734.875 214.812 721.062 205.437C709.5 197.562 693.937 194.625 679.687 197.562C665.437 200.5 665.375 211.375 659.5 214.312C653.5 217.312 641.187 222.75 639.75 229.125Z" fill="#6D4C41"/>
<path d="M625.875 234.75C610.125 241.625 563.75 278.187 455.5 286.5C336.125 295.687 195.938 281.5 172.563 278.187C149.188 274.875 109.313 273.312 109.875 263.312C110.688 248.312 126.188 253.125 157.438 244.125C195 233.25 233.375 218.25 262.625 200.75C307.5 173.812 398.875 106.437 488.813 104.75C587.313 102.937 619 133.937 643.188 159.812C667.375 185.687 667.75 212.812 661.063 223.687C654.438 234.562 645.063 226.437 625.875 234.75Z" fill="#518E30"/>
<path d="M315.375 228.75C317.688 231.625 361.313 233.25 385.625 232.437C441.125 230.625 485.063 215.875 539.75 209.75C594.438 203.625 642.125 209.75 643.938 207.625C647.25 203.75 613.688 158.125 503.875 170.437C463.438 175 411.438 195.562 375.563 209.875C352.688 219.187 313.188 226 315.375 228.75Z" fill="#366918"/>
<defs>
<radialGradient id="paint0_radial_13_11" cx="0" cy="0" r="1" gradientUnits="userSpaceOnUse" gradientTransform="translate(471.4 -312.081) scale(1149.77 1149.77)">
<stop offset="0.532" stop-color="#F33A1F"/>
<stop offset="0.615" stop-color="#F86922"/>
<stop offset="0.696" stop-color="#FD9124"/>
<stop offset="0.739" stop-color="#FFA025"/>
<stop offset="0.793" stop-color="#FCA025"/>
<stop offset="0.839" stop-color="#F1A124"/>
<stop offset="0.883" stop-color="#DFA222"/>
<stop offset="0.925" stop-color="#C7A41F"/>
<stop offset="0.962" stop-color="#AAA61C"/>
</radialGradient>
</defs>
</svg>
